<svg width="12" height="12" viewBox="0 0 12 12" fill="none" xmlns="http://www.w3.org/2000/svg">
<path fill-rule="evenodd" clip-rule="evenodd" d="M4.58579 2.08579C4.96086 1.71071 5.46957 1.5 6 1.5C6.53043 1.5 7.03914 1.71071 7.41421 2.08579C7.78929 2.46086 8 2.96957 8 3.5V5H4V3.5C4 2.96957 4.21071 2.46086 4.58579 2.08579ZM3 5V3.5C3 2.70435 3.31607 1.94129 3.87868 1.37868C4.44129 0.81607 5.20435 0.5 6 0.5C6.79565 0.5 7.55871 0.81607 8.12132 1.37868C8.68393 1.94129 9 2.70435 9 3.5V5H9.5C10.3284 5 11 5.67157 11 6.5V10C11 10.8284 10.3284 11.5 9.5 11.5H2.5C1.67157 11.5 1 10.8284 1 10V6.5C1 5.67157 1.67157 5 2.5 5H3ZM8.5 6H3.5H2.5C2.22386 6 2 6.22386 2 6.5V10C2 10.2761 2.22386 10.5 2.5 10.5H9.5C9.77614 10.5 10 10.2761 10 10V6.5C10 6.22386 9.77614 6 9.5 6H8.5Z" fill="#392928" fill-opacity="0.75"/>
</svg>
