<svg width="13" height="12" viewBox="0 0 13 12" fill="none" xmlns="http://www.w3.org/2000/svg">
<path fill-rule="evenodd" clip-rule="evenodd" d="M5.36285 1.64491C3.5844 2.10799 2.234 3.63162 2.02746 5.5H4.02505C4.13715 4.11841 4.59955 2.79221 5.36285 1.64491ZM7.63715 1.64491C8.40045 2.79221 8.86285 4.11841 8.97495 5.5H10.9725C10.766 3.63162 9.4156 2.10799 7.63715 1.64491ZM7.9712 5.5C7.84561 4.14341 7.33484 2.85097 6.5 1.7754C5.66516 2.85097 5.15439 4.14341 5.0288 5.5H7.9712ZM5.0288 6.5H7.9712C7.84561 7.85659 7.33484 9.14903 6.5 10.2246C5.66516 9.14903 5.15439 7.85659 5.0288 6.5ZM4.02505 6.5H2.02746C2.234 8.36838 3.58441 9.89202 5.36286 10.3551C4.59956 9.20779 4.13715 7.88159 4.02505 6.5ZM7.63714 10.3551C8.40044 9.20779 8.86285 7.88159 8.97495 6.5H10.9725C10.766 8.36838 9.4156 9.89202 7.63714 10.3551ZM6.5 11.5C9.53757 11.5 12 9.03757 12 6C12 2.96243 9.53757 0.5 6.5 0.5C3.46243 0.5 1 2.96243 1 6C1 9.03757 3.46243 11.5 6.5 11.5Z" fill="#392928"/>
</svg>
